<svg width="1728" height="1117" viewBox="0 0 1728 1117" fill="none" xmlns="http://www.w3.org/2000/svg">
<path d="M1779.24 1413.67L1781.06 1415L1782.16 1413.03L2040.74 951.976L2041.86 949.99L2039.75 949.142L1515.21 738.509V637.789L2039.76 422.852L2041.86 421.992L2040.74 420.016L1782.16 -36.7281L1781.05 -38.6821L1779.24 -37.358L1124.16 440.931L1123.34 441.531V442.547V933.762V934.778L1124.16 935.377L1779.24 1413.67ZM1166.12 -401.787L1166.36 -404.037L1164.09 -404L638.309 -395.382L636.051 -395.345L636.361 -393.108L713.75 165.711L625.577 216.086L178.422 -127.815L176.637 -129.187L175.485 -127.254L-91.7178 320.873L-92.875 322.813L-90.8082 323.726L650.463 651.204L651.39 651.613L652.269 651.108L1078.93 405.5L1079.81 404.992L1079.92 403.979L1166.12 -401.787ZM-90.8082 1048.27L-92.8809 1049.19L-91.7149 1051.13L179.797 1503.57L180.958 1505.5L182.739 1504.12L625.583 1160.23L713.75 1210.6L636.361 1769.42L636.049 1771.67L638.326 1771.69L1164.11 1776L1166.35 1776.02L1166.12 1773.79L1079.92 968.021L1079.81 967.008L1078.93 966.5L652.269 720.893L651.39 720.387L650.463 720.796L-90.8082 1048.27Z" stroke="white" stroke-opacity="0.2" stroke-width="4"/>
</svg>
